<?xml version="1.0" encoding="iso-8859-1"?>
<!-- Generator: Adobe Illustrator 19.0.0, SVG Export Plug-In . SVG Version: 6.00 Build 0)  -->
<svg version="1.1" id="Layer_1" xmlns="http://www.w3.org/2000/svg" xmlns:xlink="http://www.w3.org/1999/xlink" x="0px" y="0px"
	 viewBox="0 0 512.005 512.005" style="enable-background:new 0 0 512.005 512.005;" xml:space="preserve">
<rect x="0.007" y="66.507" style="fill:#CCCCCC;" width="511.993" height="378.994"/>
<g>
	<rect x="404.475" y="164.035" style="fill:#4D4D4D;" width="62.108" height="18.636"/>
	<rect x="177.738" y="164.035" style="fill:#4D4D4D;" width="208.922" height="18.636"/>
	<rect x="288.51" y="251.997" style="fill:#4D4D4D;" width="178.073" height="18.636"/>
	<rect x="177.738" y="251.997" style="fill:#4D4D4D;" width="99.591" height="18.636"/>
	<rect x="375.478" y="339.959" style="fill:#4D4D4D;" width="91.105" height="18.636"/>
	<rect x="45.417" y="339.959" style="fill:#4D4D4D;" width="317.222" height="18.636"/>
	<rect x="177.738" y="208.016" style="fill:#4D4D4D;" width="288.845" height="18.636"/>
	<rect x="177.738" y="295.978" style="fill:#4D4D4D;" width="288.845" height="18.636"/>
	<rect x="214.388" y="383.927" style="fill:#4D4D4D;" width="252.195" height="18.636"/>
	<rect x="45.423" y="383.927" style="fill:#4D4D4D;" width="158.195" height="18.636"/>
</g>
<polygon style="fill:#E6E6E6;" points="512,66.504 512,445.498 194.232,445.498 300.494,66.504 "/>
<rect x="0.007" y="66.507" style="fill:#F9C573;" width="511.993" height="57.15"/>
<polygon style="fill:#FCD8A9;" points="512,66.504 512,123.655 284.467,123.655 300.494,66.504 "/>
<rect y="118.066" style="fill:#B3B3B3;" width="512.005" height="11.182"/>
<circle style="fill:#F94B54;" cx="31.308" cy="96.324" r="9.318"/>
<circle style="fill:#61BCE0;" cx="91.565" cy="96.324" r="9.318"/>
<circle style="fill:#F2F2F2;" cx="61.437" cy="96.324" r="9.318"/>
<path style="fill:#F94B54;" d="M113.686,153.025H99.224L58.101,313.294h19.232l7.541-29.37h43.161l7.541,29.37h19.232
	L113.686,153.025z M89.658,265.288l16.797-65.462l16.797,65.462H89.658z"/>
<g>
	<polygon style="fill:#808080;" points="277.323,270.63 243.257,270.63 248.487,251.995 277.323,251.995 	"/>
	<polygon style="fill:#808080;" points="352.082,358.592 218.595,358.592 223.443,339.956 352.082,339.956 	"/>
	<polygon style="fill:#808080;" points="386.654,182.669 267.918,182.669 273.149,164.033 386.654,164.033 	"/>
	<rect x="412.551" y="164.035" style="fill:#808080;" width="54.032" height="18.636"/>
	<polygon style="fill:#808080;" points="260.812,208.014 466.578,208.014 466.578,226.65 255.594,226.65 	"/>
	<rect x="297.418" y="251.997" style="fill:#808080;" width="169.165" height="18.636"/>
	<polygon style="fill:#808080;" points="236.15,295.975 466.578,295.975 466.578,314.611 230.932,314.611 	"/>
	<rect x="375.478" y="339.959" style="fill:#808080;" width="91.105" height="18.636"/>
	<rect x="225.359" y="383.927" style="fill:#808080;" width="241.224" height="18.636"/>
</g>
<g>
</g>
<g>
</g>
<g>
</g>
<g>
</g>
<g>
</g>
<g>
</g>
<g>
</g>
<g>
</g>
<g>
</g>
<g>
</g>
<g>
</g>
<g>
</g>
<g>
</g>
<g>
</g>
<g>
</g>
</svg>
