<?xml version="1.0" encoding="iso-8859-1"?>
<!-- Generator: Adobe Illustrator 19.0.0, SVG Export Plug-In . SVG Version: 6.00 Build 0)  -->
<svg version="1.1" id="Layer_1" xmlns="http://www.w3.org/2000/svg" xmlns:xlink="http://www.w3.org/1999/xlink" x="0px" y="0px"
	 viewBox="0 0 512 512" style="enable-background:new 0 0 512 512;" xml:space="preserve">
<rect x="78.5" y="51.875" style="fill:#FFDC64;" width="62.12" height="97.62"/>
<rect x="78.5" y="51.875" style="fill:#FFC850;" width="62.12" height="26.625"/>
<polygon style="fill:#FFDC64;" points="477.875,211.625 256,60.75 34.125,211.625 34.125,477.875 477.875,477.875 "/>
<polygon style="fill:#FFC850;" points="256,60.75 34.125,211.625 34.125,264.875 256,105.125 477.875,264.875 477.875,211.625 "/>
<polygon style="fill:#FF507D;" points="256,25.25 7.5,202.75 7.5,247.125 256,69.625 504.5,247.125 504.5,202.75 "/>
<rect x="25.25" y="398" style="fill:#FFC850;" width="461.5" height="88.75"/>
<g>
	<path style="fill:#B4F0FF;" d="M256,131.75L256,131.75c-19.606,0-35.5,15.894-35.5,35.5v35.5h71v-35.5
		C291.5,147.644,275.606,131.75,256,131.75z"/>
	<rect x="122.87" y="256" style="fill:#B4F0FF;" width="88.75" height="159.75"/>
</g>
<rect x="122.87" y="256" style="fill:#91E1F5;" width="88.75" height="26.625"/>
<rect x="300.37" y="256" style="fill:#B4F0FF;" width="88.75" height="159.75"/>
<g>
	<rect x="300.37" y="256" style="fill:#91E1F5;" width="88.75" height="26.625"/>
	<path style="fill:#91E1F5;" d="M256,131.75c-19.607,0-35.5,15.894-35.5,35.5v26.625c0-19.606,15.893-35.5,35.5-35.5
		s35.5,15.894,35.5,35.5V167.25C291.5,147.644,275.607,131.75,256,131.75z"/>
</g>
<path d="M508.859,196.647l-248.5-177.5c-2.608-1.862-6.11-1.862-8.719,0l-103.516,73.94V59.375h1.375c4.142,0,7.5-3.358,7.5-7.5
	s-3.358-7.5-7.5-7.5H69.625c-4.142,0-7.5,3.358-7.5,7.5s3.358,7.5,7.5,7.5H71v88.801L3.141,196.647C1.17,198.055,0,200.328,0,202.75
	v44.375c0,2.81,1.57,5.383,4.068,6.669c2.497,1.286,5.504,1.067,7.791-0.566l14.766-10.547V390.5H25.25c-4.142,0-7.5,3.358-7.5,7.5
	v88.75c0,4.142,3.358,7.5,7.5,7.5h461.5c4.142,0,7.5-3.358,7.5-7.5V398c0-4.142-3.358-7.5-7.5-7.5h-1.375V242.681l14.766,10.547
	c1.296,0.926,2.824,1.397,4.36,1.397c1.173,0,2.35-0.275,3.431-0.831c2.498-1.286,4.068-3.859,4.068-6.669V202.75
	C512,200.328,510.83,198.055,508.859,196.647z M86,59.375h47.125v44.426L86,137.462V59.375z M497,232.551l-41.412-29.58
	c-3.37-2.407-8.054-1.627-10.462,1.744c-2.408,3.371-1.627,8.055,1.744,10.462l23.506,16.79V390.5h-10.253
	c-4.142,0-7.5,3.358-7.5,7.5s3.358,7.5,7.5,7.5h19.128v73.75H32.75V405.5h19.124c4.142,0,7.5-3.358,7.5-7.5s-3.358-7.5-7.5-7.5
	H41.625V231.967L256,78.842l164.235,117.311c3.371,2.408,8.055,1.627,10.462-1.744c2.408-3.371,1.627-8.055-1.744-10.462
	L260.359,63.522c-2.608-1.862-6.11-1.862-8.719,0L15,232.551v-25.942L256,34.467L497,206.61V232.551z"/>
<path d="M424.623,390.5h-27.998V256c0-4.142-3.358-7.5-7.5-7.5h-88.75c-4.142,0-7.5,3.358-7.5,7.5v134.5h-73.75V256
	c0-4.142-3.358-7.5-7.5-7.5h-88.75c-4.142,0-7.5,3.358-7.5,7.5v134.5H87.378c-4.142,0-7.5,3.358-7.5,7.5s3.358,7.5,7.5,7.5h27.997
	v10.25c0,4.142,3.358,7.5,7.5,7.5h88.75c4.142,0,7.5-3.358,7.5-7.5V405.5h73.75v10.25c0,4.142,3.358,7.5,7.5,7.5h88.75
	c4.142,0,7.5-3.358,7.5-7.5V405.5h27.998c4.142,0,7.5-3.358,7.5-7.5S428.765,390.5,424.623,390.5z M204.125,263.5v38.25h-73.75
	V263.5H204.125z M130.375,408.25v-91.5h73.75v91.5H130.375z M381.625,263.5v38.25h-73.75V263.5H381.625z M307.875,408.25v-91.5
	h73.75v91.5H307.875z"/>
<path d="M220.5,210.25h71c4.142,0,7.5-3.358,7.5-7.5v-35.5c0-23.71-19.29-43-43-43s-43,19.29-43,43v35.5
	C213,206.892,216.358,210.25,220.5,210.25z M228,167.25c0-15.439,12.561-28,28-28s28,12.561,28,28v28h-56V167.25z"/>
<g>
</g>
<g>
</g>
<g>
</g>
<g>
</g>
<g>
</g>
<g>
</g>
<g>
</g>
<g>
</g>
<g>
</g>
<g>
</g>
<g>
</g>
<g>
</g>
<g>
</g>
<g>
</g>
<g>
</g>
</svg>
