<?xml version="1.0" encoding="iso-8859-1"?>
<!-- Generator: Adobe Illustrator 19.0.0, SVG Export Plug-In . SVG Version: 6.00 Build 0)  -->
<svg version="1.1" id="Layer_1" xmlns="http://www.w3.org/2000/svg" xmlns:xlink="http://www.w3.org/1999/xlink" x="0px" y="0px"
	 viewBox="0 0 511.999 511.999" style="enable-background:new 0 0 511.999 511.999;" xml:space="preserve">
<path style="fill:#B3B3B3;" d="M353.621,22.739h86.69c9.083,0,16.446,7.363,16.446,16.446v456.367
	c0,9.083-7.363,16.446-16.446,16.446H71.688c-9.083,0-16.446-7.363-16.446-16.446V39.185c0-9.083,7.363-16.446,16.446-16.446h86.69
	H353.621z"/>
<path style="fill:#CCCCCC;" d="M71.688,499.322c-2.078,0-3.769-1.69-3.769-3.769V39.185c0-2.078,1.691-3.768,3.769-3.768h368.623
	c2.078,0,3.768,1.69,3.768,3.768v456.367c0,2.078-1.69,3.769-3.768,3.769L71.688,499.322L71.688,499.322z"/>
<polygon style="fill:#B3B3B3;" points="381.513,98.656 414.919,98.656 414.919,484.108 97.079,484.108 97.079,448.798 
	97.079,414.569 97.079,98.656 158.378,98.656 "/>
<polygon style="fill:#FFFFFF;" points="381.513,84.71 414.919,84.71 414.919,470.162 97.079,470.162 97.079,434.852 97.079,400.623 
	97.079,84.71 158.378,84.71 "/>
<path style="fill:#F2F2F2;" d="M353.625,38.668v56.917c0,8.96-7.263,16.223-16.223,16.223H174.605
	c-8.96,0-16.223-7.263-16.223-16.223v-56.93c0-14.213,11.523-25.737,25.737-25.737h143.757
	C342.096,12.919,353.625,24.447,353.625,38.668z"/>
<g>
	<path style="fill:#61BCE0;" d="M326.997,354.71c-3.502,0-6.339-2.839-6.339-6.339v-82.555c0-3.5,2.837-6.339,6.339-6.339
		s6.339,2.839,6.339,6.339v82.555C333.336,351.872,330.498,354.71,326.997,354.71z"/>
	<path style="fill:#61BCE0;" d="M326.997,358.984c-1.622,0-3.246-0.619-4.482-1.856l-30.824-30.824c-2.476-2.476-2.476-6.49,0-8.965
		c2.473-2.475,6.49-2.475,8.963,0l26.343,26.343l26.343-26.343c2.473-2.475,6.49-2.475,8.963,0c2.476,2.476,2.476,6.49,0,8.965
		l-30.824,30.824C330.242,358.366,328.62,358.984,326.997,358.984z"/>
</g>
<path style="fill:#FCD8A9;" d="M353.625,25.749v56.917c0,8.96-7.263,16.223-16.223,16.223H174.605
	c-8.96,0-16.223-7.263-16.223-16.223v-56.93C158.382,11.523,169.905,0,184.118,0h143.757C342.096,0,353.625,11.528,353.625,25.749z"
	/>
<path style="fill:#F9C573;" d="M174.605,86.211c-1.955,0-3.545-1.59-3.545-3.544V25.737c0-7.2,5.857-13.058,13.058-13.058h143.757
	c7.209,0,13.072,5.864,13.072,13.071v56.918c0,1.955-1.59,3.544-3.545,3.544H174.605z"/>
<path style="fill:#FCEAD4;" d="M353.625,25.749v56.912c0,8.963-7.265,16.228-16.228,16.228H220.314l3.55-12.678l20.627-73.533
	L248.041,0h79.834C342.1,0,353.625,11.524,353.625,25.749z"/>
<g>
	<path style="fill:#61BCE0;" d="M219.233,240.879h-78.604c-3.502,0-6.339-2.839-6.339-6.339v-78.604c0-3.5,2.837-6.339,6.339-6.339
		h78.604c3.502,0,6.339,2.839,6.339,6.339v51.346c0,3.5-2.837,6.339-6.339,6.339c-3.502,0-6.339-2.839-6.339-6.339v-45.007h-65.926
		v65.926h72.265c3.502,0,6.339,2.839,6.339,6.339S222.735,240.879,219.233,240.879z"/>
	<path style="fill:#61BCE0;" d="M358.058,189.533c-1.622,0-3.246-0.619-4.482-1.856l-18.906-18.906l-30.112,15.613
		c-2.456,1.272-5.448,0.808-7.4-1.145l-13.902-13.9l-17.705,17.704c-2.474,2.475-6.49,2.475-8.963,0
		c-2.476-2.476-2.476-6.49,0-8.965l22.187-22.187c2.474-2.475,6.49-2.475,8.963,0l15.102,15.102l30.112-15.613
		c2.456-1.272,5.447-0.808,7.4,1.145l17.705,17.704l15.803-15.802c2.473-2.475,6.49-2.475,8.963,0c2.476,2.476,2.476,6.49,0,8.965
		l-20.285,20.285C361.304,188.914,359.681,189.533,358.058,189.533z"/>
	<path style="fill:#61BCE0;" d="M340.943,237.075c-1.644,0-3.287-0.635-4.529-1.904l-18.339-18.729l-17.658,17.657
		c-2.474,2.475-6.49,2.475-8.963,0l-13.732-13.732l-12.006,12.929c-2.382,2.565-6.392,2.714-8.958,0.332
		c-2.565-2.382-2.714-6.394-0.332-8.958l16.482-17.749c1.171-1.261,2.807-1.993,4.527-2.025c1.76-0.02,3.383,0.638,4.6,1.855
		l13.902,13.9l17.705-17.704c1.197-1.197,2.764-1.846,4.516-1.856c1.693,0.009,3.312,0.695,4.496,1.904l22.821,23.306
		c2.451,2.501,2.406,6.515-0.094,8.965C344.145,236.473,342.543,237.075,340.943,237.075z"/>
	<path style="fill:#61BCE0;" d="M234.447,300.87c-1.622,0-3.246-0.619-4.482-1.856l-18.906-18.906l-30.112,15.613
		c-2.456,1.272-5.448,0.808-7.4-1.145l-13.902-13.9l-17.705,17.704c-2.473,2.475-6.49,2.475-8.963,0
		c-2.476-2.476-2.476-6.49,0-8.965l22.187-22.187c2.473-2.475,6.49-2.475,8.963,0l15.102,15.102l30.112-15.613
		c2.456-1.272,5.447-0.808,7.4,1.145l17.705,17.704l15.803-15.802c2.474-2.475,6.49-2.475,8.963,0c2.476,2.476,2.476,6.49,0,8.965
		l-20.285,20.285C237.692,300.252,236.069,300.87,234.447,300.87z"/>
	<path style="fill:#61BCE0;" d="M209.09,351.178c-0.289,0-0.579-0.02-0.871-0.06c-1.968-0.273-3.693-1.452-4.663-3.185
		l-10.489-18.757l-16.262,16.262c-2.474,2.475-6.49,2.475-8.963,0l-13.732-13.732l-12.006,12.929
		c-2.382,2.565-6.392,2.714-8.958,0.332c-2.565-2.382-2.714-6.394-0.332-8.958l16.482-17.749c1.171-1.261,2.807-1.993,4.527-2.025
		c1.751-0.044,3.383,0.638,4.6,1.855l13.902,13.9l17.705-17.704c1.402-1.403,3.38-2.068,5.353-1.796
		c1.968,0.273,3.693,1.452,4.663,3.185l10.489,18.757l7.388-7.388c2.474-2.475,6.49-2.475,8.963,0c2.476,2.476,2.476,6.49,0,8.965
		l-13.312,13.312C212.377,350.519,210.76,351.178,209.09,351.178z"/>
	<path style="fill:#61BCE0;" d="M373.906,443.728H155.842c-3.502,0-6.339-2.839-6.339-6.339v-53.248c0-3.5,2.837-6.339,6.339-6.339
		c3.502,0,6.339,2.839,6.339,6.339v46.909h205.385v-40.57H183.733c-3.502,0-6.339-2.839-6.339-6.339s2.837-6.339,6.339-6.339
		h190.173c3.502,0,6.339,2.839,6.339,6.339v53.248C380.245,440.89,377.407,443.728,373.906,443.728z"/>
</g>
<path style="fill:#FCD8A9;" d="M340.946,25.749v56.912c0,1.965-1.585,3.55-3.55,3.55H223.864l20.627-73.533h83.384
	C335.089,12.678,340.946,18.548,340.946,25.749z"/>
<g>
</g>
<g>
</g>
<g>
</g>
<g>
</g>
<g>
</g>
<g>
</g>
<g>
</g>
<g>
</g>
<g>
</g>
<g>
</g>
<g>
</g>
<g>
</g>
<g>
</g>
<g>
</g>
<g>
</g>
</svg>
