<?xml version="1.0" encoding="iso-8859-1"?>
<!-- Generator: Adobe Illustrator 19.0.0, SVG Export Plug-In . SVG Version: 6.00 Build 0)  -->
<svg version="1.1" id="Layer_1" xmlns="http://www.w3.org/2000/svg" xmlns:xlink="http://www.w3.org/1999/xlink" x="0px" y="0px"
	 viewBox="0 0 369.855 369.855" style="enable-background:new 0 0 369.855 369.855;" xml:space="preserve">
<g>
	<path style="fill:#333E48;" d="M315.443,206.672c16.571-15.084,26.979-36.832,26.979-61.008c0-45.55-36.925-82.474-82.474-82.474
		c-33.914,0-63.045,20.476-75.713,49.737c15.541,17.534,24.992,40.582,24.992,65.8c0,21.149-6.804,41.654-19.089,58.524
		c11.606,10.24,21.178,22.617,28.169,36.35h144.049C356.367,245.445,339.068,221.476,315.443,206.672z"/>
	<path style="fill:#61B4E4;" d="M7.5,306.665h204.811c-5.986-28.155-23.285-52.126-46.912-66.929
		c16.573-15.084,26.979-36.832,26.979-61.009c0-45.549-36.924-82.474-82.474-82.474c-45.545,0-82.471,36.925-82.471,82.474
		c0,24.177,10.404,45.925,26.979,61.009C30.784,254.539,13.486,278.51,7.5,306.665z"/>
	<path style="fill:#071C2C;" d="M177.03,238.63c14.615-16.4,22.847-37.762,22.847-59.902c0-49.611-40.362-89.974-89.974-89.974
		c-49.61,0-89.971,40.362-89.971,89.974c0,22.142,8.231,43.503,22.847,59.903c-21.647,16.223-36.986,39.998-42.615,66.475
		c-0.471,2.213,0.083,4.521,1.507,6.279c1.424,1.759,3.566,2.78,5.829,2.78h204.811c2.263,0,4.404-1.021,5.829-2.78
		c1.424-1.759,1.978-4.066,1.507-6.279C214.017,278.627,198.68,254.854,177.03,238.63z M17.235,299.165
		c6.934-21.795,21.578-40.806,41.158-53.073c1.988-1.245,3.279-3.35,3.488-5.687c0.209-2.337-0.687-4.637-2.422-6.216
		c-15.587-14.186-24.526-34.4-24.526-55.462c0-41.341,33.632-74.974,74.971-74.974c41.341,0,74.974,33.633,74.974,74.974
		c0,21.061-8.939,41.275-24.527,55.462c-1.735,1.579-2.631,3.88-2.422,6.216c0.209,2.337,1.5,4.441,3.488,5.687
		c19.58,12.268,34.225,31.278,41.159,53.073H17.235z M369.691,272.041c-5.631-26.477-20.969-50.251-42.617-66.475
		c14.615-16.402,22.848-37.764,22.848-59.902c0-49.611-40.362-89.974-89.974-89.974c-35.905,0-68.326,21.298-82.596,54.258
		c-1.157,2.673-0.662,5.774,1.27,7.954c14.899,16.811,23.104,38.412,23.104,60.825c0,19.262-6.269,38.479-17.652,54.109
		c-2.278,3.129-1.801,7.479,1.101,10.039c10.929,9.643,19.827,21.125,26.447,34.128c1.28,2.515,3.862,4.098,6.684,4.098h144.049
		c2.263,0,4.405-1.021,5.829-2.78S370.162,274.255,369.691,272.041z M222.813,266.102c-6.144-11.085-13.804-21.127-22.852-29.961
		c10.849-17.084,16.765-37.226,16.765-57.413c0-24.421-8.368-48.011-23.661-66.97c12.724-25.094,38.496-41.067,66.883-41.067
		c41.341,0,74.974,33.633,74.974,74.974c0,21.059-8.939,41.273-24.527,55.462c-1.734,1.579-2.631,3.879-2.421,6.215
		c0.209,2.337,1.5,4.44,3.487,5.687c19.579,12.269,34.224,31.279,41.159,53.074H222.813V266.102z"/>
</g>
<g>
</g>
<g>
</g>
<g>
</g>
<g>
</g>
<g>
</g>
<g>
</g>
<g>
</g>
<g>
</g>
<g>
</g>
<g>
</g>
<g>
</g>
<g>
</g>
<g>
</g>
<g>
</g>
<g>
</g>
</svg>
